<?xml version="1.0" encoding="utf-8"?>
<!-- Generator: Adobe Illustrator 20.1.0, SVG Export Plug-In . SVG Version: 6.00 Build 0)  -->
<svg version="1.1" id="Layer_1" xmlns="http://www.w3.org/2000/svg" xmlns:xlink="http://www.w3.org/1999/xlink" x="0px" y="0px"
	 viewBox="0 0 50 30.8" style="enable-background:new 0 0 50 30.8;" xml:space="preserve">
<g>
	<path fill='#ff6e6e' d="M47.5,5h-45C1.1,5,0,3.9,0,2.5l0-0.1C0,1,1.1-0.1,2.5-0.1l45,0C48.9-0.1,50,1,50,2.4v0.1C50,3.9,48.9,5,47.5,5z"/>
	<path fill='#ff6e6e' d="M47.5,18h-45C1.1,18,0,16.8,0,15.4l0-0.1c0-1.4,1.1-2.5,2.5-2.5h45c1.4,0,2.5,1.1,2.5,2.5v0.1C50,16.8,48.9,18,47.5,18z"/>
	<path fill='#ff6e6e' d="M47.5,30.9h-45c-1.4,0-2.5-1.1-2.5-2.5l0-0.1c0-1.4,1.1-2.5,2.5-2.5h45c1.4,0,2.5,1.1,2.5,2.5v0.1
		C50,29.7,48.9,30.9,47.5,30.9z"/>
</g>
</svg>
