<?xml version="1.0" encoding="utf-8"?>
<!-- Generator: Adobe Illustrator 20.1.0, SVG Export Plug-In . SVG Version: 6.00 Build 0)  -->
<svg version="1.1" id="Layer_1" xmlns="http://www.w3.org/2000/svg" xmlns:xlink="http://www.w3.org/1999/xlink" x="0px" y="0px"
	 viewBox="0 0 50 30.8" style="enable-background:new 0 0 50 30.8;" xml:space="preserve">
<g>
	<path fill='#ff6e6e' d="M20,12.5H2.5C1.1,12.5,0,11.4,0,10V2.5C0,1.1,1.1,0,2.5,0H20c1.4,0,2.5,1.1,2.5,2.5V10C22.5,11.4,21.4,12.5,20,12.5z"/>
	<path fill='#ff6e6e' d="M47.5,12.5H30c-1.4,0-2.5-1.1-2.5-2.5V2.5C27.5,1.1,28.6,0,30,0h17.5C48.9,0,50,1.1,50,2.5V10C50,11.4,48.9,12.5,47.5,12.5
		z"/>
	<path fill='#ff6e6e' d="M20,30.8H2.5c-1.4,0-2.5-1.1-2.5-2.5v-7.4c0-1.4,1.1-2.5,2.5-2.5H20c1.4,0,2.5,1.1,2.5,2.5v7.4
		C22.5,29.7,21.4,30.8,20,30.8z"/>
	<path fill='#ff6e6e' d="M47.5,30.8H30c-1.4,0-2.5-1.1-2.5-2.5v-7.4c0-1.4,1.1-2.5,2.5-2.5h17.5c1.4,0,2.5,1.1,2.5,2.5v7.4
		C50,29.7,48.9,30.8,47.5,30.8z"/>
</g>
</svg>
