<?xml version="1.0" encoding="utf-8"?>
<!-- Generator: Adobe Illustrator 20.1.0, SVG Export Plug-In . SVG Version: 6.00 Build 0)  -->
<svg version="1.1" id="Layer_1" xmlns="http://www.w3.org/2000/svg" xmlns:xlink="http://www.w3.org/1999/xlink" x="0px" y="0px"
	 viewBox="0 0 141.7 141.7" style="enable-background:new 0 0 141.7 141.7;" xml:space="preserve">
<style type="text/css">
	.st0{fill:#6259A6;}
	.st1{fill:#FFFFFF;}
</style>
<g>
	<circle class="st0" cx="70.9" cy="70.9" r="70.9"/>
	<g>
		<path class="st1" d="M98.2,66.4c0.1-12-10.1-23.1-22.9-24.6c-0.3,0-0.6-0.1-0.9-0.1c-0.7-0.1-1.3-0.2-1.9-0.2
			c-2.6,0-3.3,1.8-3.5,2.9c-0.2,1,0,2,0.5,2.6c0.9,1.1,2.4,1.4,3.6,1.5c0.4,0.1,0.7,0.1,0.9,0.2c11.4,2.6,15.3,6.5,17.1,17.9
			c0,0.3,0.1,0.7,0.1,0.9c0.1,1.3,0.3,4.2,3.3,4.2c0.3,0,0.6,0,0.9-0.1c2.8-0.5,2.7-3,2.6-4.3c0-0.4,0-0.7,0-0.9
			C98.2,66.5,98.2,66.4,98.2,66.4L98.2,66.4z"/>
		<path class="st1" d="M71.8,37.4c0.4,0,0.7,0.1,0.9,0.1c18.7,2.9,27.4,11.8,29.8,30.7c0,0.3,0,0.8,0.1,1.1c0,1.5,0.1,4.5,3.4,4.6
			h0.1c1,0,1.9-0.3,2.5-0.9c1-1,0.9-2.6,0.9-4c0-0.3,0-0.6,0-0.9c0.3-19.4-16.5-36.9-35.8-37.5c-0.1,0-0.2,0-0.2,0s-0.1,0-0.2,0
			c-0.2,0-0.5,0-0.7,0c-0.3,0-0.7,0-1,0c-3.1,0-3.7,2.2-3.8,3.5C67.5,37,70.4,37.2,71.8,37.4L71.8,37.4z"/>
		<path class="st1" d="M101.6,92.5c-0.4-0.3-0.9-0.7-1.2-0.9c-2.1-1.6-4.3-3.2-6.3-4.6c-0.5-0.3-0.9-0.6-1.3-0.9
			c-2.7-1.9-5.1-2.8-7.4-2.8c-3.1,0-5.8,1.7-8,5.1c-0.9,1.5-2.2,2.2-3.7,2.2c-0.9,0-1.9-0.3-2.9-0.8c-8.7-4-14.9-10-18.5-18
			c-1.7-3.9-1.1-6.4,1.9-8.4c1.7-1.1,4.9-3.3,4.7-7.5c-0.3-4.7-10.7-18.9-15-20.5c-1.9-0.7-3.8-0.7-5.9,0c-5,1.7-8.7,4.6-10.5,8.6
			c-1.7,3.8-1.7,8.3,0.2,12.9C33.1,70.3,40.7,82,50.5,91.7c9.5,9.4,21.2,17.2,34.7,23.1c1.2,0.6,2.5,0.9,3.4,1
			c0.3,0.1,0.6,0.1,0.8,0.2c0.1,0,0.2,0,0.4,0h0.1c6.3,0,14-5.9,16.3-12.5C108.4,97.7,104.6,94.9,101.6,92.5L101.6,92.5z"/>
		<path class="st1" d="M74.6,52.7c-1.1,0-3.4,0.1-4.2,2.4c-0.4,1-0.3,2,0.1,2.7c0.7,1.1,2,1.5,3.1,1.7c4.3,0.7,6.4,3,6.9,7.5
			c0.2,2.1,1.6,3.5,3.3,3.5c0.1,0,0.3,0,0.4,0c2.1-0.3,3.1-1.8,3-4.6c0-2.9-1.5-6.3-4.2-9C80.7,54.1,77.5,52.6,74.6,52.7L74.6,52.7z
			"/>
	</g>
</g>
</svg>
